<?xml version="1.0" standalone="no"?>
<!DOCTYPE svg PUBLIC "-//W3C//DTD SVG 20010904//EN"
 "http://www.w3.org/TR/2001/REC-SVG-20010904/DTD/svg10.dtd">
<svg version="1.0" xmlns="http://www.w3.org/2000/svg"
 width="1990.000000pt" height="1990.000000pt" viewBox="0 0 1990.000000 1990.000000"
 preserveAspectRatio="xMidYMid meet">
<metadata>
Created by potrace 1.11, written by Peter Selinger 2001-2013
</metadata>
<g transform="translate(0.000000,1990.000000) scale(0.100000,-0.100000)"
fill="#000000" stroke="none">
<path d="M9817 17856 c-3 -7 -32 -20 -65 -28 -77 -19 -187 -93 -261 -174 -67
-74 -391 -411 -815 -849 -358 -369 -517 -534 -671 -695 -352 -367 -785 -812
-819 -839 -9 -8 -47 -20 -84 -27 -37 -7 -85 -19 -107 -28 -22 -8 -57 -15 -78
-16 -21 0 -51 -7 -67 -15 -16 -8 -57 -19 -92 -24 -35 -5 -80 -16 -100 -25 -21
-9 -53 -16 -72 -16 -20 0 -57 -8 -83 -19 -26 -10 -72 -21 -102 -25 -30 -4 -66
-13 -81 -21 -14 -7 -55 -18 -91 -23 -35 -6 -82 -17 -104 -26 -22 -8 -56 -15
-76 -16 -20 0 -56 -9 -80 -20 -24 -11 -62 -20 -84 -20 -22 0 -60 -9 -84 -20
-24 -11 -61 -20 -82 -20 -22 0 -56 -7 -77 -16 -20 -9 -68 -23 -107 -30 -38 -7
-88 -19 -110 -28 -22 -8 -56 -15 -76 -16 -20 0 -56 -9 -80 -20 -24 -11 -61
-20 -81 -20 -21 0 -60 -9 -88 -20 -28 -11 -66 -20 -86 -20 -19 0 -51 -7 -72
-16 -20 -9 -68 -23 -107 -30 -38 -7 -88 -19 -110 -28 -22 -8 -56 -15 -76 -16
-20 0 -56 -9 -80 -20 -24 -11 -62 -20 -84 -20 -22 0 -60 -9 -84 -20 -24 -11
-60 -20 -81 -20 -21 0 -59 -10 -86 -21 -39 -18 -69 -22 -154 -23 -93 -1 -109
2 -140 21 -19 13 -44 23 -55 23 -11 0 -33 9 -50 20 -16 11 -37 20 -45 20 -8 0
-32 9 -53 20 -20 11 -43 20 -49 20 -7 0 -35 12 -63 25 -27 14 -55 25 -60 25
-6 0 -28 9 -50 20 -22 11 -46 20 -55 20 -8 0 -28 9 -45 20 -16 11 -39 20 -50
20 -11 0 -33 9 -50 20 -16 11 -39 20 -50 20 -11 0 -33 9 -50 20 -16 11 -37 20
-45 20 -8 0 -37 11 -65 25 -27 13 -58 25 -68 25 -11 0 -30 9 -44 20 -14 11
-34 20 -45 20 -10 0 -35 8 -56 19 -20 10 -51 22 -69 25 -17 4 -37 14 -44 22
-6 8 -21 14 -33 14 -11 0 -43 12 -71 25 -27 14 -56 25 -62 25 -7 0 -27 9 -45
20 -18 11 -41 20 -52 20 -10 0 -33 8 -50 19 -17 10 -71 24 -119 31 -174 26
-318 -21 -432 -142 -58 -61 -100 -142 -154 -295 -6 -18 -15 -45 -21 -60 -19
-57 -42 -130 -55 -178 -7 -27 -20 -67 -29 -87 -9 -21 -16 -53 -16 -73 0 -20
-9 -53 -20 -75 -11 -22 -20 -57 -20 -80 0 -22 -9 -66 -19 -97 -11 -32 -22 -93
-26 -135 -3 -43 -12 -95 -19 -116 -8 -21 -17 -92 -21 -158 -7 -138 -21 -228
-35 -232 -14 -5 -14 -592 0 -592 14 0 19 -29 35 -200 8 -85 21 -180 29 -210 9
-30 16 -71 16 -92 0 -20 9 -60 20 -88 11 -28 20 -67 20 -86 0 -19 9 -52 20
-74 11 -22 20 -52 20 -67 0 -16 8 -44 19 -63 10 -19 21 -51 25 -71 3 -19 15
-53 26 -74 11 -22 20 -46 20 -55 0 -9 6 -24 14 -35 7 -11 17 -31 21 -45 8 -27
51 -126 66 -150 5 -8 14 -26 19 -40 6 -14 14 -32 20 -40 5 -8 16 -29 24 -46 7
-17 25 -49 40 -72 14 -23 26 -48 26 -55 0 -19 -43 -57 -65 -57 -64 0 -255
-197 -255 -263 0 -9 -9 -39 -20 -67 -19 -48 -20 -74 -20 -474 0 -385 2 -433
20 -521 11 -53 20 -128 20 -166 0 -41 8 -92 19 -126 11 -32 22 -89 26 -128 4
-38 13 -81 20 -95 7 -14 16 -52 20 -85 4 -32 16 -77 26 -100 10 -22 19 -55 19
-73 0 -18 9 -50 20 -72 11 -22 20 -50 20 -62 0 -13 9 -40 20 -61 11 -20 20
-45 20 -55 0 -10 9 -35 19 -56 11 -21 23 -52 27 -69 3 -17 15 -44 25 -61 10
-17 19 -39 19 -49 0 -11 9 -30 20 -44 11 -14 20 -32 20 -40 0 -8 9 -31 19 -51
11 -20 24 -48 30 -62 6 -14 31 -61 56 -105 25 -44 52 -95 60 -113 9 -18 31
-56 50 -83 19 -27 35 -51 35 -53 0 -2 26 -41 58 -87 31 -45 75 -107 96 -138
61 -87 273 -326 378 -427 102 -97 276 -244 354 -300 68 -48 183 -127 203 -139
9 -6 27 -17 41 -26 14 -9 49 -31 78 -49 29 -19 55 -43 57 -54 3 -12 6 -158 7
-326 3 -262 5 -309 19 -330 9 -14 19 -37 23 -52 7 -29 32 -70 84 -136 32 -39
158 -132 181 -132 6 0 29 -9 51 -20 22 -11 55 -20 74 -20 18 0 53 -9 77 -20
24 -11 62 -20 84 -20 22 -1 58 -8 80 -16 22 -9 67 -20 100 -25 33 -5 76 -15
95 -24 19 -8 62 -19 95 -24 54 -9 158 -41 170 -53 3 -2 6 -121 8 -264 4 -214
7 -264 20 -289 9 -16 24 -48 34 -70 19 -45 133 -165 156 -165 8 0 25 -8 38
-19 13 -10 44 -22 68 -26 24 -4 58 -13 75 -20 17 -7 54 -16 81 -19 28 -4 74
-16 103 -27 29 -10 69 -19 88 -19 19 0 56 -9 82 -19 26 -11 70 -22 99 -25 29
-3 65 -12 82 -20 16 -9 47 -16 68 -16 21 -1 56 -8 78 -16 22 -9 72 -22 110
-29 39 -7 88 -20 110 -29 22 -8 56 -15 76 -16 20 0 56 -9 80 -20 24 -11 63
-20 87 -20 24 0 62 -8 85 -19 23 -10 68 -21 101 -25 32 -3 68 -12 80 -18 11
-6 53 -17 91 -24 39 -7 88 -19 110 -28 22 -8 56 -15 76 -16 20 0 56 -9 80 -20
24 -11 61 -20 81 -20 21 0 60 -9 88 -20 28 -11 66 -20 85 -20 19 0 56 -8 82
-19 26 -10 74 -21 106 -25 32 -3 71 -13 86 -21 15 -7 52 -17 82 -20 30 -4 75
-15 101 -26 26 -10 67 -19 91 -19 71 0 76 -5 672 -625 148 -154 438 -453 645
-665 206 -212 433 -446 505 -520 240 -249 289 -291 357 -304 40 -7 52 -19 62
-58 6 -28 7 -28 94 -28 l88 0 10 37 c8 32 14 39 49 48 79 20 135 67 357 298
389 406 457 476 774 802 295 305 373 386 648 675 65 69 168 173 227 233 104
102 110 107 151 107 24 0 61 9 83 19 23 10 68 22 100 26 33 4 72 13 86 20 14
8 54 18 90 23 35 6 82 17 104 26 22 8 56 15 76 16 20 0 56 9 80 20 24 11 61
20 82 20 21 0 54 7 75 16 20 9 65 20 100 25 35 5 76 16 91 23 15 8 56 19 92
24 35 6 82 17 104 26 22 8 56 15 76 16 20 0 56 9 80 20 24 11 61 20 81 20 21
0 60 9 88 20 28 11 65 20 83 20 18 1 50 8 72 16 22 9 72 21 110 28 39 7 79 17
91 24 11 6 45 14 75 17 30 4 75 15 101 26 26 10 64 19 85 19 21 0 51 7 68 16
16 8 59 19 95 23 37 5 80 15 96 24 16 8 56 18 89 22 33 4 71 13 85 20 14 7 48
16 75 20 52 7 138 44 189 80 52 36 93 85 131 158 l38 72 4 245 c2 135 3 253 3
262 0 28 58 61 134 74 39 6 89 19 111 28 22 8 58 15 80 16 22 0 50 6 61 14 11
8 52 19 91 24 38 6 84 17 101 26 17 9 50 16 74 16 24 0 63 9 87 20 24 11 49
20 57 20 25 0 128 59 170 97 46 43 124 136 124 150 0 4 10 26 22 48 22 39 23
51 28 363 l5 324 45 39 c25 21 49 39 54 39 12 0 188 118 296 198 310 231 610
547 821 867 66 99 119 184 130 209 6 12 22 42 37 68 15 26 42 77 61 115 18 37
38 75 42 83 5 8 14 26 20 40 6 14 19 43 29 65 10 22 27 61 39 88 11 26 21 53
21 59 0 6 8 30 18 52 24 53 51 131 64 181 6 22 19 58 29 81 11 23 19 56 19 75
0 19 9 54 20 78 11 24 20 56 20 72 0 16 9 55 19 87 10 31 22 88 26 125 4 38
13 84 20 101 8 18 17 75 21 127 3 52 15 136 25 188 17 83 19 141 19 510 -1
348 -3 423 -16 456 -9 22 -20 57 -25 78 -8 34 -56 112 -98 161 -30 34 -120 96
-150 102 -36 7 -71 38 -71 62 0 10 12 38 28 63 26 42 102 194 145 289 11 25
28 62 38 82 11 20 19 44 19 52 0 9 9 35 19 58 22 49 46 119 66 193 7 28 20 67
29 87 9 21 16 54 16 75 0 21 9 58 20 82 11 24 20 65 20 91 0 26 9 76 19 111
11 37 22 114 25 183 9 163 12 173 52 192 l34 16 0 282 0 281 -34 23 c-40 27
-43 38 -52 208 -4 71 -13 149 -22 174 -8 25 -18 83 -22 130 -5 47 -15 103 -24
125 -8 22 -15 59 -16 83 0 23 -9 60 -20 82 -11 22 -20 54 -20 72 -1 18 -8 51
-16 73 -9 22 -22 65 -29 95 -7 30 -20 72 -29 92 -9 21 -16 45 -16 55 0 10 -9
35 -20 56 -11 20 -20 47 -20 59 0 13 -9 37 -20 53 -11 17 -20 36 -20 44 0 35
-61 131 -121 191 -123 122 -262 161 -446 126 -40 -7 -83 -20 -95 -28 -13 -8
-39 -18 -59 -22 -21 -3 -42 -13 -48 -20 -7 -8 -26 -17 -44 -20 -18 -3 -51 -15
-72 -26 -22 -11 -46 -20 -55 -20 -8 0 -28 -9 -45 -20 -16 -11 -39 -20 -50 -20
-11 0 -33 -9 -50 -20 -16 -11 -39 -20 -50 -20 -11 0 -33 -9 -50 -20 -16 -11
-37 -20 -45 -20 -8 0 -37 -12 -65 -25 -27 -14 -58 -25 -68 -25 -11 0 -30 -9
-44 -20 -14 -11 -35 -20 -47 -20 -11 0 -34 -9 -51 -20 -16 -11 -39 -20 -50
-20 -11 0 -33 -9 -50 -20 -16 -11 -39 -20 -50 -20 -11 0 -34 -9 -52 -19 -17
-11 -47 -23 -67 -26 -19 -4 -40 -13 -46 -20 -6 -8 -26 -17 -43 -20 -18 -4 -50
-15 -72 -24 -22 -10 -60 -28 -85 -39 -25 -11 -58 -23 -75 -27 -16 -4 -38 -14
-49 -23 -24 -23 -169 -21 -214 2 -17 9 -59 20 -94 25 -35 5 -80 16 -100 25
-21 9 -54 16 -75 16 -21 1 -56 8 -78 16 -22 9 -68 20 -102 25 -34 4 -75 15
-90 23 -15 7 -55 17 -88 21 -32 4 -77 16 -100 26 -22 10 -57 19 -77 19 -21 0
-60 9 -88 20 -28 11 -66 20 -85 20 -19 0 -57 9 -85 20 -28 11 -64 20 -81 20
-16 0 -54 9 -84 19 -31 11 -81 23 -112 27 -32 4 -75 15 -98 25 -22 10 -59 19
-81 19 -23 0 -61 9 -85 20 -24 11 -62 20 -84 20 -22 0 -60 9 -84 20 -24 11
-60 20 -80 20 -20 1 -54 8 -76 16 -22 9 -69 20 -104 26 -36 5 -76 15 -90 23
-14 7 -53 16 -86 20 -32 4 -77 16 -100 26 -22 10 -60 19 -85 19 -25 0 -65 9
-89 20 -24 11 -62 20 -85 20 -22 0 -61 9 -85 20 -24 11 -60 20 -80 20 -20 1
-54 8 -76 16 -22 9 -71 21 -110 28 -38 7 -84 20 -100 28 -30 16 -540 532
-1060 1073 -148 154 -436 451 -640 660 -773 793 -774 793 -880 821 -27 8 -55
20 -61 29 -15 21 -209 22 -217 1z m223 -633 c58 -60 155 -160 214 -223 135
-142 285 -297 777 -800 212 -217 448 -460 525 -540 863 -897 844 -880 937
-880 15 0 44 -7 65 -16 20 -9 67 -20 104 -25 38 -4 81 -15 97 -24 17 -8 45
-15 63 -15 18 -1 51 -8 73 -16 22 -9 74 -21 115 -29 41 -7 93 -20 115 -28 22
-9 54 -16 72 -17 18 0 55 -9 83 -20 28 -11 67 -20 88 -20 20 -1 55 -8 77 -16
22 -9 66 -20 98 -25 32 -5 70 -15 85 -23 15 -7 55 -16 90 -19 34 -4 76 -14 92
-22 16 -8 51 -18 77 -21 27 -4 74 -15 105 -25 32 -11 70 -19 85 -19 15 0 55
-9 88 -19 33 -11 83 -24 110 -30 28 -5 68 -14 90 -19 22 -6 69 -18 105 -27 36
-9 96 -23 133 -30 37 -8 76 -19 86 -25 11 -5 45 -13 77 -16 33 -4 81 -15 107
-25 26 -11 60 -19 76 -19 15 0 54 -9 86 -20 32 -11 72 -20 89 -20 17 -1 49 -8
71 -16 22 -8 72 -21 111 -29 39 -7 80 -17 90 -23 11 -6 51 -15 90 -20 39 -6
85 -17 102 -26 17 -9 45 -16 63 -16 17 0 67 -12 111 -27 l80 -27 -7 -35 c-4
-20 -10 -211 -14 -426 -4 -222 -12 -405 -18 -425 -6 -19 -23 -75 -38 -125 -15
-49 -36 -119 -45 -155 -10 -36 -25 -85 -34 -109 -9 -24 -16 -51 -16 -61 0 -9
-8 -39 -19 -66 -10 -27 -24 -69 -30 -94 -18 -67 -45 -158 -95 -325 -24 -82
-49 -168 -56 -190 -25 -87 -50 -172 -65 -220 -9 -27 -25 -81 -36 -120 -37
-130 -60 -210 -79 -275 -10 -36 -27 -97 -38 -136 -11 -40 -23 -78 -27 -85 -5
-6 -14 -37 -21 -68 -7 -31 -19 -76 -28 -101 -8 -25 -24 -79 -35 -120 -12 -41
-30 -102 -41 -135 -11 -33 -20 -69 -20 -80 0 -11 -7 -33 -15 -49 -8 -16 -22
-54 -30 -85 -8 -31 -25 -96 -39 -146 -29 -102 -32 -159 -11 -195 8 -14 15 -38
15 -55 0 -16 9 -48 19 -70 10 -22 21 -59 25 -83 3 -24 13 -53 20 -65 8 -12 17
-42 21 -67 4 -25 13 -56 20 -70 7 -14 18 -48 23 -75 6 -28 18 -71 26 -97 9
-27 23 -69 32 -95 9 -27 19 -69 24 -95 5 -25 15 -60 24 -76 8 -16 18 -49 22
-73 3 -24 12 -54 20 -66 7 -12 17 -41 20 -65 4 -24 15 -61 25 -83 10 -22 19
-53 19 -68 0 -15 9 -45 20 -67 11 -22 20 -52 20 -67 0 -15 9 -46 19 -68 10
-22 21 -60 25 -85 4 -25 13 -54 20 -65 8 -11 17 -40 21 -64 4 -24 16 -62 26
-85 10 -23 19 -54 19 -69 0 -15 9 -45 20 -67 11 -22 20 -53 20 -70 0 -17 8
-47 19 -68 10 -20 21 -57 25 -82 4 -25 13 -54 21 -66 7 -11 17 -43 21 -70 4
-27 15 -65 25 -84 11 -19 19 -47 19 -61 0 -15 9 -46 20 -70 11 -24 20 -57 20
-72 0 -15 9 -45 20 -67 11 -22 20 -52 20 -67 0 -16 8 -44 18 -63 11 -19 22
-57 25 -83 4 -27 14 -58 22 -70 34 -48 13 -87 -47 -87 -21 0 -64 -8 -96 -19
-31 -10 -79 -22 -106 -26 -27 -4 -63 -13 -80 -20 -17 -7 -65 -20 -106 -28 -41
-9 -95 -20 -120 -27 -82 -21 -194 -48 -290 -70 -90 -20 -124 -29 -315 -79 -44
-12 -105 -26 -135 -31 -30 -5 -73 -16 -95 -24 -22 -8 -52 -15 -66 -16 -15 0
-55 -9 -90 -19 -35 -11 -84 -22 -109 -26 -25 -4 -56 -13 -70 -20 -14 -7 -46
-15 -72 -18 -26 -4 -74 -16 -107 -27 -33 -11 -73 -20 -87 -20 -15 0 -55 -9
-88 -19 -34 -10 -106 -29 -161 -40 -97 -21 -188 -44 -330 -81 -38 -11 -88 -22
-110 -25 -22 -4 -66 -15 -98 -26 -31 -10 -70 -19 -85 -19 -16 0 -55 -9 -87
-20 -32 -11 -69 -20 -82 -20 -13 0 -49 -9 -80 -20 -32 -11 -68 -20 -80 -20
-13 0 -49 -9 -80 -19 -32 -11 -78 -23 -103 -27 -26 -4 -59 -18 -80 -36 -20
-15 -160 -158 -311 -316 -319 -334 -798 -830 -1049 -1087 -97 -99 -228 -234
-291 -300 -122 -128 -538 -561 -652 -678 -37 -38 -84 -89 -103 -112 l-35 -43
1 -387 c0 -331 -2 -386 -14 -383 -17 4 -366 360 -1501 1533 -159 165 -382 395
-495 510 -113 116 -257 263 -320 328 -126 129 -120 126 -305 167 -153 34 -220
51 -265 65 -25 8 -65 17 -90 20 -25 4 -72 15 -105 25 -33 10 -82 23 -110 28
-27 6 -68 15 -90 20 -51 13 -164 40 -235 57 -94 22 -192 46 -270 65 -41 10
-97 24 -125 30 -123 27 -144 32 -210 50 -124 32 -208 52 -275 66 -36 7 -90 20
-120 29 -30 8 -62 15 -70 15 -9 0 -46 8 -81 19 -35 10 -109 29 -164 41 -55 13
-125 30 -155 38 -30 8 -84 21 -120 28 -77 15 -170 39 -261 65 -36 10 -76 19
-89 19 -13 0 -53 9 -89 20 -73 21 -179 47 -256 62 -27 5 -56 17 -62 26 -10 12
-13 108 -13 400 0 262 -4 390 -11 404 -11 21 -5 51 38 178 8 25 19 68 25 95 5
28 15 59 22 70 7 11 16 40 20 65 4 25 13 59 22 75 8 16 18 50 21 75 3 25 14
61 25 80 10 19 18 48 18 65 0 16 7 44 16 60 8 17 20 54 26 84 5 30 15 64 23
75 7 12 15 42 19 69 3 26 12 57 20 70 8 12 18 42 22 67 4 25 15 63 25 85 10
22 19 53 19 68 0 15 9 45 20 67 11 22 20 54 20 72 0 18 9 50 20 71 11 20 20
47 20 59 1 13 8 41 16 63 9 22 22 65 29 95 13 52 21 78 61 198 9 26 19 67 23
92 4 25 15 59 24 77 9 18 17 45 17 60 0 15 9 46 19 69 10 23 22 61 26 85 4 24
13 54 21 66 8 13 17 44 21 70 3 27 14 64 25 83 10 19 18 47 18 61 0 15 9 46
20 70 11 24 20 58 20 74 0 17 7 44 16 60 9 17 22 57 29 90 7 33 19 74 26 92
11 27 10 43 -10 122 -12 50 -28 106 -36 126 -8 19 -15 45 -15 57 0 12 -9 45
-19 73 -11 27 -29 82 -40 120 -51 180 -73 252 -82 280 -6 17 -19 60 -30 98
-10 37 -28 97 -38 135 -11 37 -24 81 -30 97 -6 17 -22 71 -36 120 -14 50 -34
119 -45 155 -11 36 -29 97 -40 135 -32 108 -58 195 -75 250 -9 28 -22 75 -29
106 -7 31 -17 62 -21 69 -5 8 -14 37 -21 64 -7 28 -20 74 -29 101 -18 59 -44
145 -80 270 -14 50 -31 104 -36 120 -6 17 -17 53 -24 82 -7 28 -15 55 -18 60
-3 5 -16 43 -27 84 -12 41 -31 106 -43 144 -19 64 -22 104 -28 450 -4 209 -10
402 -14 429 -8 58 6 76 62 76 18 0 55 9 83 20 28 11 64 20 81 20 16 0 55 9 86
20 31 11 80 23 107 26 28 4 63 13 77 20 14 7 50 16 80 19 30 4 75 15 101 26
26 10 63 19 82 19 19 0 58 9 86 20 28 11 64 20 81 20 16 0 54 9 85 19 30 11
76 23 102 27 26 3 73 15 104 25 32 11 71 19 87 19 16 0 48 9 72 20 24 11 61
20 81 20 21 0 60 9 88 20 28 11 66 20 85 20 19 0 56 8 82 19 26 10 73 22 103
26 30 4 66 13 80 20 14 7 48 16 75 20 28 4 76 15 108 26 31 10 70 19 87 19 16
0 52 9 80 20 28 11 65 20 83 20 18 1 50 8 72 16 22 9 67 20 100 25 33 5 76 15
95 24 19 8 62 18 95 24 33 5 78 16 100 25 22 8 54 15 72 16 18 0 55 9 83 20
28 11 66 20 86 20 19 0 51 7 72 16 20 9 65 20 100 25 35 5 75 15 90 23 15 8
53 17 84 21 l57 7 154 157 c84 86 204 210 268 276 63 66 254 264 425 440 170
176 418 432 549 570 132 137 373 387 536 555 163 168 347 358 409 423 62 64
119 117 128 117 9 0 64 -48 122 -107z m-7685 -2543 c17 -11 37 -20 45 -20 8 0
38 -11 65 -25 28 -13 56 -25 63 -25 6 0 29 -9 49 -20 21 -11 47 -20 58 -20 11
0 31 -9 45 -20 14 -11 34 -20 45 -20 11 0 35 -9 53 -20 18 -11 38 -20 45 -20
7 0 30 -9 52 -20 21 -11 54 -23 72 -26 18 -3 37 -12 44 -20 6 -7 27 -17 47
-20 20 -4 50 -15 67 -26 16 -10 39 -18 50 -18 11 0 34 -9 50 -20 17 -11 37
-20 45 -20 8 0 38 -12 65 -25 28 -14 58 -25 67 -25 9 0 20 -4 23 -10 3 -5 30
-17 60 -25 29 -9 56 -23 59 -32 4 -9 0 -34 -8 -57 -34 -100 -36 -137 -36 -604
1 -421 3 -475 20 -552 22 -98 53 -214 68 -250 6 -14 23 -68 38 -120 29 -104
48 -167 89 -305 15 -49 36 -121 47 -160 11 -38 29 -94 39 -123 11 -30 19 -63
19 -74 0 -10 8 -40 19 -66 10 -26 24 -67 30 -92 20 -71 48 -168 76 -260 14
-47 34 -114 45 -150 10 -36 28 -96 40 -135 12 -38 30 -99 40 -135 11 -36 31
-103 45 -150 14 -47 35 -114 45 -150 25 -89 43 -149 75 -255 15 -49 36 -119
46 -155 10 -36 30 -105 44 -155 29 -97 29 -97 -20 -255 -8 -25 -26 -85 -40
-135 -14 -49 -35 -121 -47 -160 -46 -153 -58 -193 -83 -280 -57 -197 -96 -328
-125 -425 -10 -36 -31 -105 -45 -155 -14 -49 -35 -119 -45 -155 -21 -68 -47
-156 -81 -275 -12 -38 -29 -99 -40 -135 -10 -36 -29 -101 -43 -145 -13 -44
-34 -114 -45 -155 -12 -41 -31 -106 -43 -145 -11 -38 -29 -97 -39 -130 -10
-33 -26 -89 -37 -125 -11 -36 -23 -80 -27 -97 -9 -46 -32 -43 -113 14 -239
166 -548 470 -677 664 -11 17 -36 51 -55 77 -20 26 -49 70 -64 97 -16 28 -35
57 -42 66 -18 21 -83 140 -145 269 -28 58 -59 122 -70 142 -10 20 -19 45 -19
55 0 10 -8 30 -18 43 -9 14 -22 43 -29 65 -17 59 -43 134 -64 183 -11 23 -19
55 -19 70 -1 15 -9 45 -20 67 -11 22 -19 57 -20 78 0 21 -9 59 -19 85 -11 26
-22 75 -25 109 -3 35 -12 78 -20 97 -8 18 -17 78 -21 132 -4 55 -14 126 -22
159 -12 46 -16 144 -20 425 -5 424 -7 413 74 418 28 2 80 -4 115 -12 36 -8
118 -18 184 -21 65 -4 146 -13 179 -22 33 -8 123 -18 200 -23 81 -5 159 -15
185 -25 47 -16 71 -14 69 7 0 7 -49 54 -107 104 -125 106 -334 333 -412 448
-19 28 -51 72 -70 98 -19 25 -42 59 -51 75 -10 15 -36 60 -59 98 -23 39 -48
84 -56 100 -7 17 -18 37 -24 45 -5 8 -14 26 -20 40 -5 14 -14 32 -19 40 -21
34 -61 123 -61 134 0 6 -9 28 -20 49 -11 20 -20 45 -20 55 0 10 -9 35 -19 55
-11 21 -22 57 -26 80 -4 23 -13 52 -21 64 -7 11 -18 49 -23 83 -6 34 -15 68
-21 75 -6 7 -15 48 -20 91 -5 44 -15 97 -23 119 -8 22 -17 99 -21 170 -3 72
-11 148 -17 170 -20 79 -23 351 -5 472 9 61 21 174 26 250 5 76 16 156 24 178
8 22 16 65 16 95 0 30 8 73 16 95 9 22 20 70 24 107 5 37 15 77 23 90 8 13 17
47 20 77 4 29 13 64 21 77 9 12 19 42 22 66 4 24 15 60 25 80 11 21 19 48 19
60 0 13 9 37 20 53 11 17 20 38 20 48 0 10 5 27 10 38 14 26 75 25 115 -1z
m15252 12 c6 -4 15 -21 19 -37 4 -17 15 -46 26 -65 10 -19 18 -46 18 -60 0
-14 9 -38 20 -55 11 -16 20 -44 20 -60 0 -17 9 -48 20 -70 11 -22 20 -53 20
-70 1 -16 8 -48 16 -70 9 -22 22 -75 29 -117 8 -42 19 -86 25 -98 6 -12 14
-53 16 -93 3 -40 13 -90 21 -112 9 -24 18 -98 23 -190 5 -82 14 -172 20 -200
16 -67 16 -404 1 -477 -7 -31 -16 -121 -20 -200 -4 -78 -13 -153 -20 -165 -6
-13 -16 -59 -22 -104 -5 -45 -17 -95 -24 -110 -8 -15 -15 -41 -15 -56 -1 -15
-8 -46 -16 -68 -9 -22 -21 -63 -28 -90 -7 -28 -21 -65 -30 -82 -9 -18 -16 -40
-16 -50 0 -10 -9 -37 -20 -60 -11 -24 -29 -62 -39 -85 -49 -110 -120 -250
-162 -318 -25 -41 -55 -91 -66 -110 -38 -63 -137 -201 -183 -254 -175 -204
-242 -274 -344 -362 -98 -84 -113 -101 -102 -113 12 -11 21 -11 63 4 29 10
102 20 188 25 77 5 167 15 200 23 33 9 114 18 180 22 66 4 147 13 180 21 84
19 159 18 176 -3 22 -26 18 -723 -5 -817 -9 -38 -19 -110 -22 -160 -3 -50 -14
-117 -25 -149 -10 -31 -19 -78 -19 -105 -1 -26 -9 -65 -20 -87 -11 -22 -19
-57 -20 -78 0 -21 -7 -54 -16 -75 -9 -20 -22 -62 -29 -92 -15 -64 -40 -137
-66 -196 -11 -23 -19 -49 -19 -58 0 -9 -8 -34 -19 -54 -10 -20 -27 -57 -38
-82 -43 -101 -117 -251 -149 -305 -13 -22 -31 -55 -39 -73 -9 -18 -48 -80 -88
-138 -39 -57 -76 -113 -82 -122 -26 -47 -220 -277 -305 -362 -93 -92 -323
-287 -407 -344 -44 -29 -71 -31 -84 -6 -4 8 -19 56 -33 105 -14 50 -35 119
-45 155 -29 96 -55 184 -85 285 -15 50 -31 104 -37 120 -6 17 -19 59 -29 95
-10 36 -28 99 -40 140 -12 41 -30 104 -40 140 -10 36 -23 79 -29 95 -6 17 -22
71 -36 120 -14 50 -30 104 -36 120 -6 17 -19 60 -30 97 -37 133 -58 204 -84
288 -14 47 -34 114 -45 150 -10 36 -28 97 -40 135 -11 39 -29 99 -40 135 -10
36 -23 79 -29 95 -5 17 -22 71 -36 120 -14 50 -32 110 -40 135 -8 25 -22 74
-31 109 -19 68 -17 81 28 231 11 36 28 92 38 125 10 33 30 103 45 155 15 52
36 124 46 160 18 61 30 100 77 260 11 36 32 106 46 155 15 50 35 119 46 155
11 36 29 99 41 140 12 41 30 102 39 135 10 33 30 101 44 150 15 50 36 122 48
160 11 39 29 97 38 130 10 33 27 92 38 130 12 39 33 111 47 160 15 50 35 119
46 155 19 65 39 132 79 270 12 41 31 103 42 137 34 109 40 227 36 698 -3 400
-6 455 -22 498 -25 70 -20 89 34 108 25 8 62 23 82 32 21 9 42 17 48 17 5 0
27 9 47 20 21 11 45 20 53 20 8 0 29 9 45 20 17 11 39 20 50 20 11 0 34 9 50
20 17 11 39 20 50 20 11 0 34 9 52 19 17 11 47 23 67 26 19 4 40 13 47 21 6 7
27 16 48 20 20 4 47 15 60 25 13 11 33 19 44 19 11 0 34 8 51 19 17 10 47 21
67 25 21 4 42 13 48 20 6 7 29 16 50 20 21 3 44 12 50 20 7 8 29 17 50 21 20
3 50 15 67 25 29 20 79 26 101 12z"/>
<path d="M9880 14593 c-209 -10 -504 -36 -560 -48 -36 -8 -78 -15 -93 -15 -51
0 -258 -51 -477 -117 -97 -29 -103 -31 -305 -109 -149 -58 -489 -224 -575
-281 -25 -16 -67 -44 -95 -61 -300 -188 -649 -495 -883 -776 -148 -177 -188
-230 -294 -391 -175 -266 -319 -550 -413 -815 -15 -41 -35 -98 -46 -125 -10
-28 -19 -55 -19 -60 0 -6 -8 -39 -19 -75 -45 -152 -84 -324 -102 -455 -5 -38
-17 -122 -27 -185 -20 -133 -22 -510 -3 -645 6 -44 16 -120 22 -170 9 -85 56
-332 65 -346 2 -4 11 -40 19 -80 24 -113 115 -401 151 -472 8 -16 14 -34 14
-40 0 -17 100 -233 163 -352 32 -60 63 -119 68 -130 31 -63 157 -261 242 -380
234 -323 537 -629 887 -893 92 -70 231 -159 445 -284 64 -37 321 -158 338
-158 7 0 26 -9 42 -20 17 -11 39 -20 49 -20 10 0 37 -8 60 -19 151 -69 515
-169 725 -201 41 -6 77 -13 81 -15 4 -2 76 -12 161 -21 207 -23 680 -23 864 0
344 42 615 106 915 216 47 17 96 35 110 40 14 4 39 15 55 24 17 9 33 16 37 16
4 0 50 20 102 45 53 25 97 45 100 45 3 0 54 29 286 162 177 102 458 317 655
501 568 530 966 1211 1160 1982 53 213 102 530 116 749 8 146 -2 454 -17 478
-3 4 -11 63 -19 131 -8 67 -21 145 -30 172 -8 28 -15 61 -15 75 0 14 -8 54
-19 90 -11 36 -27 92 -36 125 -46 173 -64 228 -96 303 -11 23 -19 48 -19 54 0
6 -9 29 -19 52 -11 23 -42 93 -70 156 -97 222 -123 268 -319 566 -117 178
-190 275 -312 413 -254 286 -489 493 -777 684 -262 174 -494 296 -758 400
-193 76 -511 177 -558 177 -9 0 -50 9 -90 19 -111 30 -335 60 -522 71 -93 6
-195 11 -225 13 -30 2 -84 2 -120 0z m-806 -1480 c3 -10 22 -45 41 -78 19 -33
35 -64 35 -68 0 -11 -61 -36 -113 -47 -23 -4 -67 -15 -97 -24 -30 -9 -68 -21
-85 -26 -16 -4 -55 -18 -85 -30 -30 -12 -66 -25 -80 -29 -51 -17 -277 -124
-365 -174 -105 -59 -399 -267 -449 -317 -28 -28 14 -14 120 39 106 53 175 85
269 126 126 55 271 110 365 140 30 9 64 20 75 25 11 4 49 15 85 25 36 9 79 20
95 25 17 6 55 15 85 21 30 6 89 18 130 26 41 8 102 19 135 23 33 4 94 12 135
18 225 32 775 45 930 22 36 -5 87 -10 114 -10 52 0 216 -23 336 -46 41 -8 100
-20 130 -25 119 -23 381 -98 480 -137 14 -5 45 -18 70 -27 25 -10 54 -21 65
-26 11 -5 43 -17 70 -28 67 -25 185 -80 332 -153 68 -34 125 -59 129 -56 6 6
-100 94 -217 181 -123 91 -330 210 -454 262 -40 17 -73 31 -115 48 -19 8 -48
20 -65 27 -16 7 -43 16 -60 20 -16 5 -55 17 -85 29 -30 11 -99 32 -154 46 -89
23 -136 40 -136 49 0 2 16 32 35 67 19 35 38 72 41 82 8 21 40 22 74 2 14 -8
41 -14 60 -15 38 0 143 -21 260 -52 41 -11 91 -23 110 -28 36 -8 83 -24 135
-46 17 -6 51 -19 77 -28 26 -9 56 -20 65 -24 10 -5 34 -16 53 -24 99 -44 228
-110 335 -171 246 -142 316 -198 369 -298 107 -199 200 -392 264 -544 13 -33
30 -73 37 -90 7 -16 20 -50 28 -75 9 -25 25 -70 37 -100 22 -58 68 -197 96
-290 9 -30 22 -73 29 -95 24 -75 81 -281 95 -345 5 -19 15 -66 24 -105 25
-106 47 -215 56 -265 9 -58 29 -163 41 -220 10 -49 24 -147 40 -280 5 -47 14
-101 19 -120 6 -19 10 -58 10 -86 0 -28 5 -77 11 -109 6 -33 15 -111 20 -175
5 -63 12 -141 15 -173 l6 -58 -74 -76 c-254 -262 -579 -476 -938 -617 -25 -10
-60 -24 -78 -32 -18 -8 -39 -14 -47 -14 -9 0 -23 -4 -33 -9 -74 -37 -369 -100
-594 -127 -26 -3 -50 -9 -53 -15 -4 -5 -27 -9 -53 -9 l-47 0 -110 147 c-60 80
-116 157 -123 170 -17 30 -9 53 17 53 11 0 37 7 58 16 21 9 47 20 58 25 280
113 583 295 800 482 92 80 205 189 205 200 0 4 -46 -23 -102 -61 -188 -126
-412 -240 -648 -330 -122 -46 -164 -60 -205 -72 -16 -5 -55 -17 -85 -26 -72
-21 -164 -43 -220 -53 -25 -5 -67 -13 -95 -19 -212 -46 -411 -67 -735 -78
-203 -6 -532 6 -675 26 -38 6 -104 15 -145 21 -41 6 -100 14 -130 19 -30 4
-73 12 -95 18 -22 6 -65 15 -95 22 -99 21 -261 66 -308 86 -18 8 -41 14 -52
14 -10 0 -22 5 -25 10 -3 6 -13 10 -22 10 -8 0 -29 6 -46 14 -18 7 -52 21 -77
31 -194 77 -423 196 -580 301 -53 35 -100 64 -105 64 -25 0 210 -209 359 -320
155 -115 355 -231 536 -313 88 -40 203 -85 225 -89 42 -7 22 -50 -100 -211
l-120 -157 -47 0 c-26 0 -49 4 -53 9 -3 6 -27 12 -53 15 -179 22 -233 32 -420
77 -90 22 -293 87 -355 113 -109 47 -190 86 -332 159 -74 38 -266 168 -353
239 -41 34 -126 112 -189 173 l-113 111 0 57 c0 31 5 59 10 62 6 3 10 36 10
73 1 37 5 99 10 137 6 39 12 99 15 135 8 91 44 352 66 480 6 36 13 79 15 95 6
38 31 169 49 255 7 36 21 101 30 145 9 44 21 90 26 103 5 13 9 33 9 45 0 12 6
42 14 67 13 41 26 85 58 205 5 22 16 58 23 80 7 22 20 67 30 100 10 33 21 67
25 75 4 9 11 31 15 50 4 19 11 41 16 50 4 8 17 42 28 75 11 33 30 85 41 115
12 30 30 78 41 107 10 29 30 78 44 110 14 32 36 81 48 108 22 51 149 304 203
404 53 100 123 156 371 299 110 63 191 104 318 162 37 17 202 80 285 110 19 6
51 16 70 20 19 5 62 16 95 25 75 20 190 43 275 55 35 5 66 13 68 19 6 18 49
13 56 -6z"/>
<path d="M8890 11031 c-158 -35 -310 -192 -370 -382 -25 -82 -28 -254 -4 -337
58 -207 191 -351 369 -397 272 -71 538 127 599 445 20 105 20 133 0 223 -32
149 -71 225 -159 312 -100 101 -177 136 -304 141 -53 1 -112 0 -131 -5z"/>
<path d="M10790 11031 c-70 -15 -155 -66 -221 -131 -84 -83 -138 -192 -165
-332 -18 -96 -18 -98 4 -203 29 -143 75 -239 156 -319 174 -173 410 -195 601
-55 63 46 94 79 138 150 89 140 115 336 68 514 -34 134 -164 290 -287 346 -58
26 -84 31 -164 34 -52 2 -111 1 -130 -4z"/>
</g>
</svg>
